<?xml version="1.0" encoding="utf-8"?>

<svg version="1.1" id="Icons" xmlns="http://www.w3.org/2000/svg" xmlns:xlink="http://www.w3.org/1999/xlink" x="0px" y="0px"
	viewBox="0 0 32 32" style="enable-background:new 0 0 32 32;" xml:space="preserve">
	<path d="M27,4H5C3.3,4,2,5.3,2,7v18c0,1.7,1.3,3,3,3h22c1.7,0,3-1.3,3-3V7C30,5.3,28.7,4,27,4z M9.1,7.6c0.1-0.1,0.1-0.2,0.2-0.3
	c0.1-0.1,0.2-0.2,0.3-0.2C10,6.9,10.4,7,10.7,7.3c0.1,0.1,0.2,0.2,0.2,0.3C11,7.7,11,7.9,11,8c0,0.3-0.1,0.5-0.3,0.7
	C10.5,8.9,10.3,9,10,9C9.7,9,9.5,8.9,9.3,8.7C9.1,8.5,9,8.3,9,8C9,7.9,9,7.7,9.1,7.6z M6,8c0-0.3,0.1-0.5,0.3-0.7
	c0,0,0.1-0.1,0.1-0.1c0.1,0,0.1-0.1,0.2-0.1C6.7,7,6.7,7,6.8,7c0.1,0,0.3,0,0.4,0c0.1,0,0.1,0,0.2,0.1c0.1,0,0.1,0.1,0.2,0.1
	c0,0,0.1,0.1,0.1,0.1c0.1,0.1,0.2,0.2,0.2,0.3C8,7.7,8,7.9,8,8c0,0.1,0,0.3-0.1,0.4C7.9,8.5,7.8,8.6,7.7,8.7C7.5,8.9,7.3,9,7,9
	S6.5,8.9,6.3,8.7C6.1,8.5,6,8.3,6,8z M11.7,18.7l-3,3C8.5,21.9,8.3,22,8,22s-0.5-0.1-0.7-0.3c-0.4-0.4-0.4-1,0-1.4L9.6,18l-2.3-2.3
	c-0.4-0.4-0.4-1,0-1.4s1-0.4,1.4,0l3,3C12.1,17.7,12.1,18.3,11.7,18.7z M12.3,8.7c-0.1-0.1-0.2-0.2-0.2-0.3C12,8.3,12,8.1,12,8
	c0-0.1,0-0.3,0.1-0.4c0.1-0.1,0.1-0.2,0.2-0.3c0.4-0.4,1-0.4,1.4,0c0.1,0.1,0.2,0.2,0.2,0.3C14,7.7,14,7.9,14,8c0,0.1,0,0.3-0.1,0.4
	c-0.1,0.1-0.1,0.2-0.2,0.3C13.5,8.9,13.3,9,13,9c-0.1,0-0.3,0-0.4-0.1C12.5,8.9,12.4,8.8,12.3,8.7z M18,22h-4c-0.6,0-1-0.4-1-1
	s0.4-1,1-1h4c0.6,0,1,0.4,1,1S18.6,22,18,22z" fill="var(--color-svg-fill)" />
</svg>