<svg xmlns="http://www.w3.org/2000/svg" xmlns:xlink="http://www.w3.org/1999/xlink" width="1310" height="733.01"><rect width="1310" height="733.01" rx="5" ry="5" class="a"/><svg y="0%" x="0%"><circle cx="20" cy="20" r="6" fill="#ff5f58"/><circle cx="40" cy="20" r="6" fill="#ffbd2e"/><circle cx="60" cy="20" r="6" fill="#18c132"/></svg><svg height="673.01" viewBox="0 0 127 67.301" width="1270" x="15" xmlns="http://www.w3.org/2000/svg" xmlns:xlink="http://www.w3.org/1999/xlink" y="50"><style>@keyframes l{0%{transform:translateX(0)}1.9%{transform:translateX(-889px)}18.1%{transform:translateX(-1016px)}20.5%{transform:translateX(-1143px)}21.7%{transform:translateX(-1270px)}23.7%{transform:translateX(-1397px)}25.2%{transform:translateX(-1524px)}27.7%{transform:translateX(-1651px)}28.8%{transform:translateX(-1778px)}30.9%{transform:translateX(-1905px)}38.7%{transform:translateX(-2032px)}39.8%{transform:translateX(-2159px)}43.4%{transform:translateX(-2286px)}45.6%{transform:translateX(-2413px)}49.1%{transform:translateX(-2540px)}50.6%{transform:translateX(-2667px)}51.7%{transform:translateX(-2794px)}53.3%{transform:translateX(-2921px)}55.8%{transform:translateX(-3048px)}57.3%{transform:translateX(-3175px)}57.6%{transform:translateX(-3302px)}58.4%{transform:translateX(-3429px)}60.7%{transform:translateX(-3556px)}65%{transform:translateX(-3683px)}68.9%{transform:translateX(-3810px)}71.3%{transform:translateX(-3937px)}84.2%{transform:translateX(-4191px)}84.3%{transform:translateX(-4572px)}84.5%{transform:translateX(-5461px)}to{transform:translateX(-5588px)}}.a{fill:#282d35}.g,.h,.i,.j{fill:#d290e4;white-space:pre}.h,.i,.j{fill:#a8cc8c}.i,.j{fill:#b9c0cb}.j{text-decoration:underline}</style><g font-family="Monaco,Consolas,Menlo,'Bitstream Vera Sans Mono','Powerline Symbols',monospace" font-size="1.67"><defs><symbol id="1"><text y="1.67" style="white-space:pre" fill="#71bef2">~</text></symbol><symbol id="2"><text y="1.67" class="g">❯</text></symbol><symbol id="3"><text y="1.67" class="g">❯</text><text x="2.004" y="1.67" class="h">ipsw</text></symbol><symbol id="4"><text y="1.67" class="g">❯</text><text x="2.004" y="1.67" class="h">ipsw</text><text x="7.014" y="1.67" class="i">info</text></symbol><symbol id="5"><text y="1.67" class="g">❯</text><text x="2.004" y="1.67" class="h">ipsw</text><text x="7.014" y="1.67" class="i">info</text><text x="12.024" y="1.67" class="j">~/Downloads/iPodtouch_7_13.3.1_17D5050a_Restore.ipsw</text></symbol><symbol id="6"><text y="1.67" class="i">[IPSW</text><text x="6.012" y="1.67" class="i">Info]</text></symbol><symbol id="7"><text y="1.67" class="i">===========</text></symbol><symbol id="8"><text y="1.67" class="i">Version</text><text x="15.03" y="1.67" class="i">=</text><text x="17.034" y="1.67" class="i">13.3.1</text></symbol><symbol id="9"><text y="1.67" class="i">BuildVersion</text><text x="15.03" y="1.67" class="i">=</text><text x="17.034" y="1.67" class="i">17D5050a</text></symbol><symbol id="10"><text y="1.67" class="i">OS</text><text x="3.006" y="1.67" class="i">Type</text><text x="15.03" y="1.67" class="i">=</text><text x="17.034" y="1.67" class="i">Development</text></symbol><symbol id="11"><text y="1.67" class="i">FileSystem</text><text x="15.03" y="1.67" class="i">=</text><text x="17.034" y="1.67" class="i">038-20125-022.dmg</text><text x="35.07" y="1.67" class="i">(Type:</text><text x="42.084" y="1.67" class="i">APFS)</text></symbol><symbol id="12"><text y="1.67" class="i">Devices</text></symbol><symbol id="13"><text y="1.67" class="i">-------</text></symbol><symbol id="14"><text y="1.67" class="i">iPod</text><text x="5.01" y="1.67" class="i">touch)</text></symbol><symbol id="15"><text x="1.002" y="1.67" class="i">-</text><text x="3.006" y="1.67" class="i">iPod9,1_N112AP_17D5050a</text></symbol><symbol id="16"><text x="3.006" y="1.67" class="i">-</text><text x="5.01" y="1.67" class="i">KernelCache:</text><text x="18.036" y="1.67" class="i">kernelcache.release.n112</text></symbol><symbol id="17"><text x="3.006" y="1.67" class="i">-</text><text x="5.01" y="1.67" class="i">CPU:</text><text x="10.02" y="1.67" class="i">A10</text><text x="14.028" y="1.67" class="i">Fusion</text><text x="21.042" y="1.67" class="i">(ARMv8.1-A),</text><text x="34.068" y="1.67" class="i">ID:</text><text x="38.076" y="1.67" class="i">t8010</text></symbol><symbol id="a"><path fill="transparent" d="M0 0h127v31H0z"/></symbol></defs><path class="a" d="M0 0h127v67.301H0z"/><g style="animation-duration:12.627616s;animation-iteration-count:infinite;animation-name:l;animation-timing-function:steps(1,end)"><svg width="5715"><svg><use xlink:href="#a"/></svg><svg x="127"><use xlink:href="#a"/></svg><svg x="254"><use xlink:href="#a"/></svg><svg x="381"><use xlink:href="#a"/></svg><svg x="508"><use xlink:href="#a"/><use xlink:href="#1" y="2.171"/><use xlink:href="#2" y="4.342"/></svg><svg x="635"><use xlink:href="#a"/><use xlink:href="#1" y="2.171"/><use xlink:href="#2" y="4.342"/></svg><svg x="762"><use xlink:href="#a"/><use xlink:href="#1" y="2.171"/><use xlink:href="#2" y="4.342"/></svg><svg x="889"><use xlink:href="#a"/><use xlink:href="#1" y="2.171"/><use xlink:href="#2" y="4.342"/></svg><svg x="1016"><use xlink:href="#a"/><use xlink:href="#1" y="2.171"/><text y="6.012" class="g">❯</text><text x="2.004" y="6.012" class="j">i</text></svg><svg x="1143"><use xlink:href="#a"/><use xlink:href="#1" y="2.171"/><text y="6.012" class="g">❯</text><text x="2.004" y="6.012" class="h">ip</text></svg><svg x="1270"><use xlink:href="#a"/><use xlink:href="#1" y="2.171"/><text y="6.012" class="g">❯</text><text x="2.004" y="6.012" class="h">ips</text></svg><svg x="1397"><use xlink:href="#a"/><use xlink:href="#1" y="2.171"/><use xlink:href="#3" y="4.342"/></svg><svg x="1524"><use xlink:href="#a"/><use xlink:href="#1" y="2.171"/><use xlink:href="#3" y="4.342"/></svg><svg x="1651"><use xlink:href="#a"/><use xlink:href="#1" y="2.171"/><text y="6.012" class="g">❯</text><text x="2.004" y="6.012" class="h">ipsw</text><text x="7.014" y="6.012" class="j">i</text></svg><svg x="1778"><use xlink:href="#a"/><use xlink:href="#1" y="2.171"/><text y="6.012" class="g">❯</text><text x="2.004" y="6.012" class="h">ipsw</text><text x="7.014" y="6.012" class="i">in</text></svg><svg x="1905"><use xlink:href="#a"/><use xlink:href="#1" y="2.171"/><text y="6.012" class="g">❯</text><text x="2.004" y="6.012" class="h">ipsw</text><text x="7.014" y="6.012" class="i">inf</text></svg><svg x="2032"><use xlink:href="#a"/><use xlink:href="#1" y="2.171"/><use xlink:href="#4" y="4.342"/></svg><svg x="2159"><use xlink:href="#a"/><use xlink:href="#1" y="2.171"/><use xlink:href="#4" y="4.342"/></svg><svg x="2286"><use xlink:href="#a"/><use xlink:href="#1" y="2.171"/><text y="6.012" class="g">❯</text><text x="2.004" y="6.012" class="h">ipsw</text><text x="7.014" y="6.012" class="i">info</text><text x="12.024" y="6.012" class="j">~</text></svg><svg x="2413"><use xlink:href="#a"/><use xlink:href="#1" y="2.171"/><text y="6.012" class="g">❯</text><text x="2.004" y="6.012" class="h">ipsw</text><text x="7.014" y="6.012" class="i">info</text><text x="12.024" y="6.012" class="j">~/</text></svg><svg x="2540"><use xlink:href="#a"/><use xlink:href="#1" y="2.171"/><text y="6.012" class="g">❯</text><text x="2.004" y="6.012" class="h">ipsw</text><text x="7.014" y="6.012" class="i">info</text><text x="12.024" y="6.012" class="j">~/D</text></svg><svg x="2667"><use xlink:href="#a"/><use xlink:href="#1" y="2.171"/><text y="6.012" class="g">❯</text><text x="2.004" y="6.012" class="h">ipsw</text><text x="7.014" y="6.012" class="i">info</text><text x="12.024" y="6.012" class="j">~/Do</text></svg><svg x="2794"><use xlink:href="#a"/><use xlink:href="#1" y="2.171"/><text y="6.012" class="g">❯</text><text x="2.004" y="6.012" class="h">ipsw</text><text x="7.014" y="6.012" class="i">info</text><text x="12.024" y="6.012" class="j">~/Dow</text></svg><svg x="2921"><use xlink:href="#a"/><use xlink:href="#1" y="2.171"/><text y="6.012" class="g">❯</text><text x="2.004" y="6.012" class="h">ipsw</text><text x="7.014" y="6.012" class="i">info</text><text x="12.024" y="6.012" class="j">~/Down</text></svg><svg x="3048"><use xlink:href="#a"/><use xlink:href="#1" y="2.171"/><text y="6.012" class="g">❯</text><text x="2.004" y="6.012" class="h">ipsw</text><text x="7.014" y="6.012" class="i">info</text><text x="12.024" y="6.012" class="j">~/Downl</text></svg><svg x="3175"><use xlink:href="#a"/><use xlink:href="#1" y="2.171"/><text y="6.012" class="g">❯</text><text x="2.004" y="6.012" class="h">ipsw</text><text x="7.014" y="6.012" class="i">info</text><text x="12.024" y="6.012" class="j">~/Downlo</text></svg><svg x="3302"><use xlink:href="#a"/><use xlink:href="#1" y="2.171"/><text y="6.012" class="g">❯</text><text x="2.004" y="6.012" class="h">ipsw</text><text x="7.014" y="6.012" class="i">info</text><text x="12.024" y="6.012" class="j">~/Downloa</text></svg><svg x="3429"><use xlink:href="#a"/><use xlink:href="#1" y="2.171"/><text y="6.012" class="g">❯</text><text x="2.004" y="6.012" class="h">ipsw</text><text x="7.014" y="6.012" class="i">info</text><text x="12.024" y="6.012" class="j">~/Download</text></svg><svg x="3556"><use xlink:href="#a"/><use xlink:href="#1" y="2.171"/><text y="6.012" class="g">❯</text><text x="2.004" y="6.012" class="h">ipsw</text><text x="7.014" y="6.012" class="i">info</text><text x="12.024" y="6.012" class="i">~/Download/</text></svg><svg x="3683"><use xlink:href="#a"/><use xlink:href="#1" y="2.171"/><text y="6.012" class="g">❯</text><text x="2.004" y="6.012" class="h">ipsw</text><text x="7.014" y="6.012" class="i">info</text><text x="12.024" y="6.012" class="i">~/Download/i</text></svg><svg x="3810"><use xlink:href="#a"/><use xlink:href="#1" y="2.171"/><text y="6.012" class="g">❯</text><text x="2.004" y="6.012" class="h">ipsw</text><text x="7.014" y="6.012" class="i">info</text><text x="12.024" y="6.012" class="i">~/Download/iP</text></svg><svg x="3937"><use xlink:href="#a"/><use xlink:href="#1" y="2.171"/><text y="6.012" class="g">❯</text><text x="2.004" y="6.012" class="h">ipsw</text><text x="7.014" y="6.012" class="i">info</text><text x="12.024" y="6.012" class="i">~/Downloads/iPodtouch_7_13.3.1_17D5050a_Restore.ipsw</text></svg><svg x="4064"><use xlink:href="#a"/><use xlink:href="#1" y="2.171"/><use xlink:href="#5" y="4.342"/></svg><svg x="4191"><use xlink:href="#a"/><use xlink:href="#1" y="2.171"/><use xlink:href="#5" y="4.342"/></svg><svg x="4318"><use xlink:href="#a"/><use xlink:href="#1" y="2.171"/><use xlink:href="#5" y="4.342"/></svg><svg x="4445"><use xlink:href="#a"/><use xlink:href="#1" y="2.171"/><use xlink:href="#5" y="4.342"/></svg><svg x="4572"><use xlink:href="#a"/><use xlink:href="#1" y="2.171"/><use xlink:href="#5" y="4.342"/></svg><svg x="4699"><use xlink:href="#a"/><use xlink:href="#1" y="2.171"/><use xlink:href="#5" y="4.342"/><use xlink:href="#6" y="8.684"/><use xlink:href="#7" y="10.855"/><use xlink:href="#8" y="13.026"/><use xlink:href="#9" y="15.197"/><use xlink:href="#10" y="17.368"/><use xlink:href="#11" y="19.539"/><use xlink:href="#12" y="23.881"/><use xlink:href="#13" y="26.052"/><use xlink:href="#14" y="30.394"/><use xlink:href="#15" y="32.565"/><use xlink:href="#16" y="34.736"/><use xlink:href="#17" y="36.907"/></svg><svg x="4826"><use xlink:href="#a"/><use xlink:href="#1" y="2.171"/><use xlink:href="#5" y="4.342"/><use xlink:href="#6" y="8.684"/><use xlink:href="#7" y="10.855"/><use xlink:href="#8" y="13.026"/><use xlink:href="#9" y="15.197"/><use xlink:href="#10" y="17.368"/><use xlink:href="#11" y="19.539"/><use xlink:href="#12" y="23.881"/><use xlink:href="#13" y="26.052"/><use xlink:href="#14" y="30.394"/><use xlink:href="#15" y="32.565"/><use xlink:href="#16" y="34.736"/><use xlink:href="#17" y="36.907"/></svg><svg x="4953"><use xlink:href="#a"/><use xlink:href="#1" y="2.171"/><use xlink:href="#5" y="4.342"/><use xlink:href="#6" y="8.684"/><use xlink:href="#7" y="10.855"/><use xlink:href="#8" y="13.026"/><use xlink:href="#9" y="15.197"/><use xlink:href="#10" y="17.368"/><use xlink:href="#11" y="19.539"/><use xlink:href="#12" y="23.881"/><use xlink:href="#13" y="26.052"/><use xlink:href="#14" y="30.394"/><use xlink:href="#15" y="32.565"/><use xlink:href="#16" y="34.736"/><use xlink:href="#17" y="36.907"/></svg><svg x="5080"><use xlink:href="#a"/><use xlink:href="#1" y="2.171"/><use xlink:href="#5" y="4.342"/><use xlink:href="#6" y="8.684"/><use xlink:href="#7" y="10.855"/><use xlink:href="#8" y="13.026"/><use xlink:href="#9" y="15.197"/><use xlink:href="#10" y="17.368"/><use xlink:href="#11" y="19.539"/><use xlink:href="#12" y="23.881"/><use xlink:href="#13" y="26.052"/><use xlink:href="#14" y="30.394"/><use xlink:href="#15" y="32.565"/><use xlink:href="#16" y="34.736"/><use xlink:href="#17" y="36.907"/></svg><svg x="5207"><use xlink:href="#a"/><use xlink:href="#1" y="2.171"/><use xlink:href="#5" y="4.342"/><use xlink:href="#6" y="8.684"/><use xlink:href="#7" y="10.855"/><use xlink:href="#8" y="13.026"/><use xlink:href="#9" y="15.197"/><use xlink:href="#10" y="17.368"/><use xlink:href="#11" y="19.539"/><use xlink:href="#12" y="23.881"/><use xlink:href="#13" y="26.052"/><use xlink:href="#14" y="30.394"/><use xlink:href="#15" y="32.565"/><use xlink:href="#16" y="34.736"/><use xlink:href="#17" y="36.907"/><use xlink:href="#1" y="43.42"/><use xlink:href="#2" y="45.591"/></svg><svg x="5334"><use xlink:href="#a"/><use xlink:href="#1" y="2.171"/><use xlink:href="#5" y="4.342"/><use xlink:href="#6" y="8.684"/><use xlink:href="#7" y="10.855"/><use xlink:href="#8" y="13.026"/><use xlink:href="#9" y="15.197"/><use xlink:href="#10" y="17.368"/><use xlink:href="#11" y="19.539"/><use xlink:href="#12" y="23.881"/><use xlink:href="#13" y="26.052"/><use xlink:href="#14" y="30.394"/><use xlink:href="#15" y="32.565"/><use xlink:href="#16" y="34.736"/><use xlink:href="#17" y="36.907"/><use xlink:href="#1" y="43.42"/><use xlink:href="#2" y="45.591"/></svg><svg x="5461"><use xlink:href="#a"/><use xlink:href="#1" y="2.171"/><use xlink:href="#5" y="4.342"/><use xlink:href="#6" y="8.684"/><use xlink:href="#7" y="10.855"/><use xlink:href="#8" y="13.026"/><use xlink:href="#9" y="15.197"/><use xlink:href="#10" y="17.368"/><use xlink:href="#11" y="19.539"/><use xlink:href="#12" y="23.881"/><use xlink:href="#13" y="26.052"/><use xlink:href="#14" y="30.394"/><use xlink:href="#15" y="32.565"/><use xlink:href="#16" y="34.736"/><use xlink:href="#17" y="36.907"/><use xlink:href="#1" y="43.42"/><use xlink:href="#2" y="45.591"/></svg><svg x="5588"><use xlink:href="#a"/><use xlink:href="#1" y="2.171"/><use xlink:href="#5" y="4.342"/><use xlink:href="#6" y="8.684"/><use xlink:href="#7" y="10.855"/><use xlink:href="#8" y="13.026"/><use xlink:href="#9" y="15.197"/><use xlink:href="#10" y="17.368"/><use xlink:href="#11" y="19.539"/><use xlink:href="#12" y="23.881"/><use xlink:href="#13" y="26.052"/><use xlink:href="#14" y="30.394"/><use xlink:href="#15" y="32.565"/><use xlink:href="#16" y="34.736"/><use xlink:href="#17" y="36.907"/><use xlink:href="#1" y="43.42"/><use xlink:href="#2" y="45.591"/></svg></svg></g></g></svg></svg>